<?xml version="1.0" encoding="UTF-8" standalone="no"?>
<!DOCTYPE svg PUBLIC "-//W3C//DTD SVG 1.1//EN" "http://www.w3.org/Graphics/SVG/1.1/DTD/svg11.dtd">
<svg width="100%" height="100%" viewBox="0 0 2481 3508" version="1.1" xmlns="http://www.w3.org/2000/svg" xmlns:xlink="http://www.w3.org/1999/xlink" xml:space="preserve" xmlns:serif="http://www.serif.com/" style="fill-rule:evenodd;clip-rule:evenodd;stroke-linecap:round;stroke-linejoin:round;stroke-miterlimit:1.5;">
    <g transform="matrix(0.981098,0,0,0.791641,21.8632,52.085)">
        <rect x="33.009" y="149.134" width="1123.66" height="100.843" style="fill:rgb(255,116,76);"/>
    </g>
    <g transform="matrix(1,0,0,1,5.56579,10.0605)">
        <g transform="matrix(0.0850335,0,0,0.289697,385.154,43.6345)">
            <rect x="0" y="0" width="2480.32" height="275.568" style="fill:none;stroke:black;stroke-width:8.78px;stroke-dasharray:4.39,17.57,4.39,17.57;"/>
        </g>
        <g transform="matrix(0.818126,0,0,0.291716,48.6829,43.6345)">
            <rect x="0" y="0" width="2480.32" height="275.568" style="fill:none;stroke:black;stroke-width:6.78px;"/>
        </g>
        <g transform="matrix(0.135546,0,0,0.291716,48.6829,43.6345)">
            <rect x="0" y="0" width="2480.32" height="275.568" style="fill:rgb(57,57,57);stroke:black;stroke-width:18.32px;"/>
        </g>
        <g transform="matrix(0.551938,0,0,0.289697,48.6829,44.191)">
            <rect x="0" y="0" width="2480.32" height="275.568" style="fill:none;stroke:black;stroke-width:9.45px;"/>
        </g>
        <g transform="matrix(0.818376,0,0,0.289697,48.6829,44.191)">
            <rect x="0" y="0" width="2480.32" height="275.568" style="fill:none;stroke:black;stroke-width:6.79px;"/>
        </g>
        <g transform="matrix(0.19066,0,0,0.289697,1605,44.191)">
            <rect x="0" y="0" width="2480.32" height="275.568" style="fill:none;stroke:black;stroke-width:7.65px;stroke-dasharray:3.82,15.29,3.82,15.29;"/>
        </g>
        <g transform="matrix(1,0,0,1,349.753,26.0001)">
            <text x="66.83px" y="73.07px" style="font-family:'Inconsolata', monospace;font-weight:500;font-size:50px;">PROJET</text>
        </g>
        <g transform="matrix(1,0,0,1,12.4096,26.2158)">
            <text x="66.83px" y="73.07px" style="font-family:'Inconsolata', monospace;font-weight:500;font-size:50px;fill:white;">DÉCORS TECH</text>
        </g>
        <g transform="matrix(1,0,0,1,1395.18,26.0001)">
            <text x="66.83px" y="73.07px" style="font-family:'Inconsolata', monospace;font-weight:500;font-size:50px;">DATE</text>
        </g>
    </g>
    <g transform="matrix(1,0,0,1,5.56579,3318.3)">
        <g transform="matrix(0.0850335,0,0,0.289697,48.6829,43.6345)">
            <rect x="0" y="0" width="2480.32" height="275.568" style="fill:none;stroke:black;stroke-width:8.78px;stroke-dasharray:4.39,17.57,4.39,17.57;"/>
        </g>
        <g transform="matrix(0.805691,0,0,0.289697,48.6829,44.191)">
            <rect x="0" y="0" width="2480.32" height="275.568" style="fill:none;stroke:black;stroke-width:6.88px;"/>
        </g>
        <g transform="matrix(0.956479,0,0,0.289697,48.6829,44.191)">
            <rect x="0" y="0" width="2480.32" height="275.568" style="fill:none;stroke:black;stroke-width:5.9px;"/>
        </g>
        <g transform="matrix(0.0778731,0,0,0.289697,2227.9,44.191)">
            <rect x="0" y="0" width="2480.32" height="275.568" style="fill:none;stroke:black;stroke-width:8.84px;stroke-dasharray:4.42,17.68,4.42,17.68;"/>
        </g>
        <g transform="matrix(1,0,0,1,13.2815,26.0001)">
            <text x="66.83px" y="73.07px" style="font-family:'Inconsolata', monospace;font-weight:500;font-size:50px;">PROJET</text>
        </g>
        <g transform="matrix(1,0,0,1,2028.88,26.0001)">
            <text x="66.83px" y="73.07px" style="font-family:'Inconsolata', monospace;font-weight:500;font-size:50px;">PAGE</text>
        </g>
    </g>
    <g transform="matrix(0.0935686,0,0,0.289697,54.2487,170.146)">
        <rect x="0" y="0" width="2480.32" height="275.568" style="fill:none;stroke:black;stroke-width:8.71px;stroke-dasharray:4.36,17.42,4.36,17.42;"/>
    </g>
    <g transform="matrix(0.0935686,0,0,0.289697,54.2487,250.112)">
        <rect x="0" y="0" width="2480.32" height="275.568" style="fill:none;stroke:black;stroke-width:8.71px;stroke-dasharray:4.36,17.42,4.36,17.42;"/>
    </g>
    <g transform="matrix(0.0935686,0,0,0.289697,54.2487,330.079)">
        <rect x="0" y="0" width="2480.32" height="275.568" style="fill:none;stroke:black;stroke-width:8.71px;stroke-dasharray:4.36,17.42,4.36,17.42;"/>
    </g>
    <g transform="matrix(0.44477,0,0,0.289697,54.2487,170.01)">
        <rect x="0" y="0" width="2480.32" height="275.568" style="fill:none;stroke:black;stroke-width:11.1px;"/>
    </g>
    <g transform="matrix(0.44477,0,0,0.289697,54.2487,249.977)">
        <rect x="0" y="0" width="2480.32" height="275.568" style="fill:none;stroke:black;stroke-width:11.1px;"/>
    </g>
    <g transform="matrix(0.44477,0,0,0.289697,54.2487,329.944)">
        <rect x="0" y="0" width="2480.32" height="275.568" style="fill:none;stroke:black;stroke-width:11.1px;"/>
    </g>
    <g transform="matrix(1,0,0,1,40.5136,152.323)">
        <text x="66.83px" y="73.07px" style="font-family:'Inconsolata', monospace;font-weight:500;font-size:50px;">DÉCOR</text>
    </g>
    <g transform="matrix(1,0,0,1,47.7237,232.275)">
        <text x="66.83px" y="73.07px" style="font-family:'Inconsolata', monospace;font-weight:500;font-size:50px;">LIEU</text>
    </g>
    <g transform="matrix(1,0,0,1,75.1127,309.048)">
        <text x="66.83px" y="73.07px" style="font-family:'Inconsolata', monospace;font-weight:500;font-size:50px;">SQ</text>
    </g>
    <g transform="matrix(0.0935686,0,0,1.53481,54.2487,463.719)">
        <rect x="0" y="0" width="2480.32" height="275.568" style="fill:none;stroke:black;stroke-width:1.72px;stroke-dasharray:0.86,3.45,0.86,3.45;"/>
    </g>
    <g transform="matrix(0.44477,0,0,1.53531,54.2487,463.584)">
        <rect x="0" y="0" width="2480.32" height="275.568" style="fill:none;stroke:black;stroke-width:3.69px;"/>
    </g>
    <g transform="matrix(1,0,0,1,28.1131,442.689)">
        <text x="66.83px" y="73.07px" style="font-family:'Inconsolata', monospace;font-weight:500;font-size:50px;">EFFETS</text>
    </g>
    <g transform="matrix(0.0935686,0,0,1.47208,54.2487,942.662)">
        <rect x="0" y="0" width="2480.32" height="275.568" style="fill:none;stroke:black;stroke-width:1.8px;stroke-dasharray:0.9,3.6,0.9,3.6;"/>
    </g>
    <g transform="matrix(0.954681,0,0,1.47257,54.2487,942.527)">
        <rect x="0" y="0" width="2480.32" height="275.568" style="fill:none;stroke:black;stroke-width:3.36px;"/>
    </g>
    <g transform="matrix(1,0,0,1,40.4057,921.632)">
        <text x="66.83px" y="73.07px" style="font-family:'Inconsolata', monospace;font-weight:500;font-size:50px;">IMAGE</text>
    </g>
    <g transform="matrix(0.0935686,0,0,2.80375,54.2487,1348.32)">
        <rect x="0" y="0" width="2480.32" height="275.568" style="fill:none;stroke:black;stroke-width:0.95px;stroke-dasharray:0.47,1.89,0.47,1.89;"/>
    </g>
    <g transform="matrix(0.955469,0,0,2.80375,54.2487,1348.32)">
        <rect x="0" y="0" width="2480.32" height="275.568" style="fill:none;stroke:black;stroke-width:1.99px;"/>
    </g>
    <g transform="matrix(1,0,0,1,17.7259,1328.07)">
        <text x="66.83px" y="73.07px" style="font-family:'Inconsolata', monospace;font-weight:500;font-size:50px;">LUMIÈRE</text>
    </g>
    <g transform="matrix(0.0928576,0,0,2.93984,54.2464,2120.75)">
        <rect x="0" y="0" width="2480.32" height="275.568" style="fill:none;stroke:black;stroke-width:0.9px;stroke-dasharray:0.45,1.8,0.45,1.8;"/>
    </g>
    <g transform="matrix(0.95547,0,0,2.93419,54.2464,2120.75)">
        <rect x="0" y="0" width="2480.32" height="275.568" style="fill:none;stroke:black;stroke-width:1.91px;"/>
    </g>
    <g transform="matrix(0.0928576,0,0,1.41132,54.2464,2930.88)">
        <rect x="0" y="0" width="2480.32" height="275.568" style="fill:none;stroke:black;stroke-width:1.87px;stroke-dasharray:0.94,3.75,0.94,3.75;"/>
    </g>
    <g transform="matrix(0.954682,0,0,1.41132,54.2464,2930.88)">
        <rect x="0" y="0" width="2480.32" height="275.568" style="fill:none;stroke:black;stroke-width:3.46px;"/>
    </g>
    <g transform="matrix(1,0,0,1,66.4591,2910.27)">
        <text x="66.83px" y="73.07px" style="font-family:'Inconsolata', monospace;font-weight:500;font-size:50px;">SON</text>
    </g>
    <g transform="matrix(0.693905,0,0,0.693905,40.0975,2112.48)">
        <text x="66.83px" y="73.07px" style="font-family:'Inconsolata', monospace;font-weight:500;font-size:50px;">MACHINERIE</text>
    </g>
    <g transform="matrix(0.0935686,0,0,2.60194,1205.43,169.79)">
        <rect x="0" y="0" width="2480.32" height="275.568" style="fill:none;stroke:black;stroke-width:1.02px;stroke-dasharray:0.51,2.04,0.51,2.04;"/>
    </g>
    <g transform="matrix(0.489538,0,0,2.60194,1205.43,169.79)">
        <rect x="0" y="0" width="2480.32" height="275.568" style="fill:none;stroke:black;stroke-width:2.23px;"/>
    </g>
    <g transform="matrix(0.824346,0,0,0.824346,1173.4,159.54)">
        <text x="66.83px" y="73.07px" style="font-family:'Inconsolata', monospace;font-weight:500;font-size:50px;">REMARQUES</text>
        <text x="129.33px" y="127.57px" style="font-family:'Inconsolata', monospace;font-weight:500;font-size:50px;">LIEU</text>
    </g>
</svg>
