<?xml version="1.0" encoding="UTF-8" standalone="no"?>
<!DOCTYPE svg PUBLIC "-//W3C//DTD SVG 1.1//EN" "http://www.w3.org/Graphics/SVG/1.1/DTD/svg11.dtd">
<svg width="100%" height="100%" viewBox="0 0 2481 3508" version="1.1" xmlns="http://www.w3.org/2000/svg" xmlns:xlink="http://www.w3.org/1999/xlink" xml:space="preserve" xmlns:serif="http://www.serif.com/" style="fill-rule:evenodd;clip-rule:evenodd;stroke-linecap:round;stroke-linejoin:round;stroke-miterlimit:1.5;">
    <rect x="0" y="0" width="2480.32" height="3507.87" style="fill:white;"/>
    <g>
        <path d="M78.847,508.84L1421.05,508.84" style="fill:none;stroke:rgb(178,178,178);stroke-width:4.17px;stroke-dasharray:4.17,83.33,4.17,83.33;"/>
        <g transform="matrix(1,0,0,1,0,-76.7843)">
            <path d="M78.847,508.84L1421.05,508.84" style="fill:none;stroke:rgb(178,178,178);stroke-width:4.17px;stroke-dasharray:4.17,83.33,4.17,83.33;"/>
        </g>
        <g transform="matrix(1,0,0,1,0,76.7843)">
            <path d="M78.847,508.84L1421.05,508.84" style="fill:none;stroke:rgb(178,178,178);stroke-width:4.17px;stroke-dasharray:4.17,83.33,4.17,83.33;"/>
        </g>
        <g transform="matrix(1,0,0,1,0,-153.569)">
            <path d="M78.847,508.84L1421.05,508.84" style="fill:none;stroke:rgb(178,178,178);stroke-width:4.17px;stroke-dasharray:4.17,83.33,4.17,83.33;"/>
        </g>
        <g transform="matrix(1,0,0,1,0,-230.353)">
            <path d="M78.847,508.84L1421.05,508.84" style="fill:none;stroke:rgb(178,178,178);stroke-width:4.17px;stroke-dasharray:4.17,83.33,4.17,83.33;"/>
        </g>
        <g transform="matrix(1,0,0,1,0,153.769)">
            <path d="M78.847,508.84L1421.05,508.84" style="fill:none;stroke:rgb(178,178,178);stroke-width:4.17px;stroke-dasharray:4.17,83.33,4.17,83.33;"/>
        </g>
        <g transform="matrix(1,0,0,1,0,230.554)">
            <path d="M78.847,508.84L1421.05,508.84" style="fill:none;stroke:rgb(178,178,178);stroke-width:4.17px;stroke-dasharray:4.17,83.33,4.17,83.33;"/>
        </g>
    </g>
    <g transform="matrix(1,0,0,1,0,653.917)">
        <path d="M78.847,508.84L1421.05,508.84" style="fill:none;stroke:rgb(178,178,178);stroke-width:4.17px;stroke-dasharray:4.17,83.33,4.17,83.33;"/>
        <g transform="matrix(1,0,0,1,0,-76.7843)">
            <path d="M78.847,508.84L1421.05,508.84" style="fill:none;stroke:rgb(178,178,178);stroke-width:4.17px;stroke-dasharray:4.17,83.33,4.17,83.33;"/>
        </g>
        <g transform="matrix(1,0,0,1,0,76.7843)">
            <path d="M78.847,508.84L1421.05,508.84" style="fill:none;stroke:rgb(178,178,178);stroke-width:4.17px;stroke-dasharray:4.17,83.33,4.17,83.33;"/>
        </g>
        <g transform="matrix(1,0,0,1,0,-153.569)">
            <path d="M78.847,508.84L1421.05,508.84" style="fill:none;stroke:rgb(178,178,178);stroke-width:4.17px;stroke-dasharray:4.17,83.33,4.17,83.33;"/>
        </g>
        <g transform="matrix(1,0,0,1,0,-230.353)">
            <path d="M78.847,508.84L1421.05,508.84" style="fill:none;stroke:rgb(178,178,178);stroke-width:4.17px;stroke-dasharray:4.17,83.33,4.17,83.33;"/>
        </g>
        <g transform="matrix(1,0,0,1,0,153.769)">
            <path d="M78.847,508.84L1421.05,508.84" style="fill:none;stroke:rgb(178,178,178);stroke-width:4.17px;stroke-dasharray:4.17,83.33,4.17,83.33;"/>
        </g>
        <g transform="matrix(1,0,0,1,0,230.554)">
            <path d="M78.847,508.84L1421.05,508.84" style="fill:none;stroke:rgb(178,178,178);stroke-width:4.17px;stroke-dasharray:4.17,83.33,4.17,83.33;"/>
        </g>
    </g>
    <g transform="matrix(1,0,0,1,0,1316.74)">
        <path d="M78.847,508.84L1421.05,508.84" style="fill:none;stroke:rgb(178,178,178);stroke-width:4.17px;stroke-dasharray:4.17,83.33,4.17,83.33;"/>
        <g transform="matrix(1,0,0,1,0,-76.7843)">
            <path d="M78.847,508.84L1421.05,508.84" style="fill:none;stroke:rgb(178,178,178);stroke-width:4.17px;stroke-dasharray:4.17,83.33,4.17,83.33;"/>
        </g>
        <g transform="matrix(1,0,0,1,0,76.7843)">
            <path d="M78.847,508.84L1421.05,508.84" style="fill:none;stroke:rgb(178,178,178);stroke-width:4.17px;stroke-dasharray:4.17,83.33,4.17,83.33;"/>
        </g>
        <g transform="matrix(1,0,0,1,0,-153.569)">
            <path d="M78.847,508.84L1421.05,508.84" style="fill:none;stroke:rgb(178,178,178);stroke-width:4.17px;stroke-dasharray:4.17,83.33,4.17,83.33;"/>
        </g>
        <g transform="matrix(1,0,0,1,0,-230.353)">
            <path d="M78.847,508.84L1421.05,508.84" style="fill:none;stroke:rgb(178,178,178);stroke-width:4.17px;stroke-dasharray:4.17,83.33,4.17,83.33;"/>
        </g>
        <g transform="matrix(1,0,0,1,0,153.769)">
            <path d="M78.847,508.84L1421.05,508.84" style="fill:none;stroke:rgb(178,178,178);stroke-width:4.17px;stroke-dasharray:4.17,83.33,4.17,83.33;"/>
        </g>
        <g transform="matrix(1,0,0,1,0,230.554)">
            <path d="M78.847,508.84L1421.05,508.84" style="fill:none;stroke:rgb(178,178,178);stroke-width:4.17px;stroke-dasharray:4.17,83.33,4.17,83.33;"/>
        </g>
    </g>
    <g transform="matrix(1,0,0,1,0,1963.78)">
        <path d="M78.847,508.84L1421.05,508.84" style="fill:none;stroke:rgb(178,178,178);stroke-width:4.17px;stroke-dasharray:4.17,83.33,4.17,83.33;"/>
        <g transform="matrix(1,0,0,1,0,-76.7843)">
            <path d="M78.847,508.84L1421.05,508.84" style="fill:none;stroke:rgb(178,178,178);stroke-width:4.17px;stroke-dasharray:4.17,83.33,4.17,83.33;"/>
        </g>
        <g transform="matrix(1,0,0,1,0,76.7843)">
            <path d="M78.847,508.84L1421.05,508.84" style="fill:none;stroke:rgb(178,178,178);stroke-width:4.17px;stroke-dasharray:4.17,83.33,4.17,83.33;"/>
        </g>
        <g transform="matrix(1,0,0,1,0,-153.569)">
            <path d="M78.847,508.84L1421.05,508.84" style="fill:none;stroke:rgb(178,178,178);stroke-width:4.17px;stroke-dasharray:4.17,83.33,4.17,83.33;"/>
        </g>
        <g transform="matrix(1,0,0,1,0,-230.353)">
            <path d="M78.847,508.84L1421.05,508.84" style="fill:none;stroke:rgb(178,178,178);stroke-width:4.17px;stroke-dasharray:4.17,83.33,4.17,83.33;"/>
        </g>
        <g transform="matrix(1,0,0,1,0,153.769)">
            <path d="M78.847,508.84L1421.05,508.84" style="fill:none;stroke:rgb(178,178,178);stroke-width:4.17px;stroke-dasharray:4.17,83.33,4.17,83.33;"/>
        </g>
        <g transform="matrix(1,0,0,1,0,230.554)">
            <path d="M78.847,508.84L1421.05,508.84" style="fill:none;stroke:rgb(178,178,178);stroke-width:4.17px;stroke-dasharray:4.17,83.33,4.17,83.33;"/>
        </g>
    </g>
    <g transform="matrix(1,0,0,1,0,2621.2)">
        <path d="M78.847,508.84L1421.05,508.84" style="fill:none;stroke:rgb(178,178,178);stroke-width:4.17px;stroke-dasharray:4.17,83.33,4.17,83.33;"/>
        <g transform="matrix(1,0,0,1,0,-76.7843)">
            <path d="M78.847,508.84L1421.05,508.84" style="fill:none;stroke:rgb(178,178,178);stroke-width:4.17px;stroke-dasharray:4.17,83.33,4.17,83.33;"/>
        </g>
        <g transform="matrix(1,0,0,1,0,76.7843)">
            <path d="M78.847,508.84L1421.05,508.84" style="fill:none;stroke:rgb(178,178,178);stroke-width:4.17px;stroke-dasharray:4.17,83.33,4.17,83.33;"/>
        </g>
        <g transform="matrix(1,0,0,1,0,-153.569)">
            <path d="M78.847,508.84L1421.05,508.84" style="fill:none;stroke:rgb(178,178,178);stroke-width:4.17px;stroke-dasharray:4.17,83.33,4.17,83.33;"/>
        </g>
        <g transform="matrix(1,0,0,1,0,-230.353)">
            <path d="M78.847,508.84L1421.05,508.84" style="fill:none;stroke:rgb(178,178,178);stroke-width:4.17px;stroke-dasharray:4.17,83.33,4.17,83.33;"/>
        </g>
        <g transform="matrix(1,0,0,1,0,153.769)">
            <path d="M78.847,508.84L1421.05,508.84" style="fill:none;stroke:rgb(178,178,178);stroke-width:4.17px;stroke-dasharray:4.17,83.33,4.17,83.33;"/>
        </g>
        <g transform="matrix(1,0,0,1,0,230.554)">
            <path d="M78.847,508.84L1421.05,508.84" style="fill:none;stroke:rgb(178,178,178);stroke-width:4.17px;stroke-dasharray:4.17,83.33,4.17,83.33;"/>
        </g>
    </g>
    <g transform="matrix(0.0850335,0,0,0.289697,336.471,0)">
        <rect x="0" y="0" width="2480.32" height="275.568" style="fill:none;stroke:black;stroke-width:8.78px;stroke-dasharray:4.39,17.57,4.39,17.57;"/>
    </g>
    <g transform="matrix(1.78556,0,0,1.76717,-219.972,-1826.93)">
        <rect x="167.353" y="1160.16" width="751.696" height="323.199" style="fill:none;stroke:black;stroke-width:1.17px;"/>
    </g>
    <g transform="matrix(1.78556,0,0,1.76717,-219.972,-515.389)">
        <rect x="167.353" y="1160.16" width="751.696" height="323.199" style="fill:none;stroke:black;stroke-width:1.17px;"/>
    </g>
    <g transform="matrix(1.78556,0,0,1.76717,-219.972,-1178.36)">
        <rect x="167.353" y="1160.16" width="751.696" height="323.199" style="fill:none;stroke:black;stroke-width:1.17px;"/>
    </g>
    <g transform="matrix(1.78556,0,0,1.76717,-219.972,133.18)">
        <rect x="167.353" y="1160.16" width="751.696" height="323.199" style="fill:none;stroke:black;stroke-width:1.17px;"/>
    </g>
    <g transform="matrix(1.78556,0,0,1.76717,-219.972,785.154)">
        <rect x="167.353" y="1160.16" width="751.696" height="323.199" style="fill:none;stroke:black;stroke-width:1.17px;"/>
    </g>
    <g transform="matrix(1,0,0,0.291716,0,0)">
        <rect x="0" y="0" width="2480.32" height="275.568" style="fill:none;stroke:black;stroke-width:5.66px;"/>
    </g>
    <g transform="matrix(0.135546,0,0,0.291716,0,0)">
        <rect x="0" y="0" width="2480.32" height="275.568" style="fill:rgb(57,57,57);stroke:black;stroke-width:18.32px;"/>
    </g>
    <g transform="matrix(0.551938,0,0,0.289697,0,0.556413)">
        <rect x="0" y="0" width="2480.32" height="275.568" style="fill:none;stroke:black;stroke-width:9.45px;"/>
    </g>
    <g transform="matrix(0.818376,0,0,0.289697,0,0.556413)">
        <rect x="0" y="0" width="2480.32" height="275.568" style="fill:none;stroke:black;stroke-width:6.79px;"/>
    </g>
    <g transform="matrix(0.265017,0,0,0.289697,1556.31,0.556413)">
        <rect x="0" y="0" width="2480.32" height="275.568" style="fill:none;stroke:black;stroke-width:6.75px;stroke-dasharray:3.38,13.51,3.38,13.51;"/>
    </g>
    <g transform="matrix(1,0,0,1,150.535,-0.453159)">
        <g transform="matrix(0.112544,0,0,0.289697,1510.01,143.57)">
            <rect x="0" y="0" width="2480.32" height="275.568" style="fill:none;stroke:black;stroke-width:8.53px;stroke-dasharray:4.27,17.06,4.27,17.06;"/>
        </g>
        <g transform="matrix(0.224169,0,0,0.289697,1510.01,143.435)">
            <rect x="0" y="0" width="2480.32" height="275.568" style="fill:none;stroke:black;stroke-width:16.09px;"/>
        </g>
        <g transform="matrix(1,0,0,1,1481.23,125.748)">
            <text x="66.83px" y="73.07px" style="font-family:'Inconsolata', monospace;font-weight:500;font-size:50px;">SÉQUENCE</text>
        </g>
    </g>
    <g transform="matrix(1,0,0,1,301.07,-17.6345)">
        <text x="66.83px" y="73.07px" style="font-family:'Inconsolata', monospace;font-weight:500;font-size:50px;">PROJET</text>
    </g>
    <g transform="matrix(1,0,0,1,-27.746,-17.4187)">
        <text x="66.83px" y="73.07px" style="font-family:'Inconsolata', monospace;font-weight:500;font-size:50px;fill:white;">STORYBOARD</text>
    </g>
    <g transform="matrix(1,0,0,1,1346.5,-17.6345)">
        <text x="66.83px" y="73.07px" style="font-family:'Inconsolata', monospace;font-weight:500;font-size:50px;">DATE</text>
    </g>
    <g transform="matrix(1,0,0,1,2006.11,-17.6345)">
        <text x="66.83px" y="73.07px" style="font-family:'Inconsolata', monospace;font-weight:500;font-size:50px;">PAGE</text>
    </g>
    <g transform="matrix(1,0,0,1,-2.27374e-13,6.38594)">
        <g transform="matrix(1,0,0,1,20.9151,199.879)">
            <path d="M1501.13,364.734L2334.13,364.734" style="fill:none;stroke:black;stroke-width:2.92px;stroke-dasharray:1.46,5.83,1.46,5.83;"/>
        </g>
        <g transform="matrix(1,0,0,1,20.9151,315.238)">
            <path d="M1501.13,364.734L2334.13,364.734" style="fill:none;stroke:black;stroke-width:2.92px;stroke-dasharray:1.46,5.83,1.46,5.83;"/>
        </g>
        <g transform="matrix(1,0,0,1,20.9151,425.192)">
            <path d="M1501.13,364.734L2334.13,364.734" style="fill:none;stroke:black;stroke-width:2.92px;stroke-dasharray:1.46,5.83,1.46,5.83;"/>
        </g>
    </g>
    <g transform="matrix(1,0,0,1,-2.27374e-13,645.498)">
        <g transform="matrix(1,0,0,1,20.9151,199.879)">
            <path d="M1501.13,364.734L2334.13,364.734" style="fill:none;stroke:black;stroke-width:2.92px;stroke-dasharray:1.46,5.83,1.46,5.83;"/>
        </g>
        <g transform="matrix(1,0,0,1,20.9151,315.238)">
            <path d="M1501.13,364.734L2334.13,364.734" style="fill:none;stroke:black;stroke-width:2.92px;stroke-dasharray:1.46,5.83,1.46,5.83;"/>
        </g>
        <g transform="matrix(1,0,0,1,20.9151,425.192)">
            <path d="M1501.13,364.734L2334.13,364.734" style="fill:none;stroke:black;stroke-width:2.92px;stroke-dasharray:1.46,5.83,1.46,5.83;"/>
        </g>
    </g>
    <g transform="matrix(1,0,0,1,-2.27374e-13,1306.07)">
        <g transform="matrix(1,0,0,1,20.9151,199.879)">
            <path d="M1501.13,364.734L2334.13,364.734" style="fill:none;stroke:black;stroke-width:2.92px;stroke-dasharray:1.46,5.83,1.46,5.83;"/>
        </g>
        <g transform="matrix(1,0,0,1,20.9151,315.238)">
            <path d="M1501.13,364.734L2334.13,364.734" style="fill:none;stroke:black;stroke-width:2.92px;stroke-dasharray:1.46,5.83,1.46,5.83;"/>
        </g>
        <g transform="matrix(1,0,0,1,20.9151,425.192)">
            <path d="M1501.13,364.734L2334.13,364.734" style="fill:none;stroke:black;stroke-width:2.92px;stroke-dasharray:1.46,5.83,1.46,5.83;"/>
        </g>
    </g>
    <g transform="matrix(1,0,0,1,-2.27374e-13,1965.04)">
        <g transform="matrix(1,0,0,1,20.9151,199.879)">
            <path d="M1501.13,364.734L2334.13,364.734" style="fill:none;stroke:black;stroke-width:2.92px;stroke-dasharray:1.46,5.83,1.46,5.83;"/>
        </g>
        <g transform="matrix(1,0,0,1,20.9151,315.238)">
            <path d="M1501.13,364.734L2334.13,364.734" style="fill:none;stroke:black;stroke-width:2.92px;stroke-dasharray:1.46,5.83,1.46,5.83;"/>
        </g>
        <g transform="matrix(1,0,0,1,20.9151,425.192)">
            <path d="M1501.13,364.734L2334.13,364.734" style="fill:none;stroke:black;stroke-width:2.92px;stroke-dasharray:1.46,5.83,1.46,5.83;"/>
        </g>
    </g>
    <g transform="matrix(1,0,0,1,-2.27374e-13,2614.97)">
        <g transform="matrix(1,0,0,1,20.9151,199.879)">
            <path d="M1501.13,364.734L2334.13,364.734" style="fill:none;stroke:black;stroke-width:2.92px;stroke-dasharray:1.46,5.83,1.46,5.83;"/>
        </g>
        <g transform="matrix(1,0,0,1,20.9151,315.238)">
            <path d="M1501.13,364.734L2334.13,364.734" style="fill:none;stroke:black;stroke-width:2.92px;stroke-dasharray:1.46,5.83,1.46,5.83;"/>
        </g>
        <g transform="matrix(1,0,0,1,20.9151,425.192)">
            <path d="M1501.13,364.734L2334.13,364.734" style="fill:none;stroke:black;stroke-width:2.92px;stroke-dasharray:1.46,5.83,1.46,5.83;"/>
        </g>
    </g>
</svg>
